<?xml version="1.0" encoding="utf-8"?>
<!-- Generator: Adobe Illustrator 24.1.2, SVG Export Plug-In . SVG Version: 6.00 Build 0)  -->
<svg version="1.1" id="Layer_1" xmlns="http://www.w3.org/2000/svg" xmlns:xlink="http://www.w3.org/1999/xlink" x="0px" y="0px"
	 viewBox="0 0 11.1 10.8" style="enable-background:new 0 0 11.1 10.8;" xml:space="preserve">
<style type="text/css">
	.st0{fill:#9164CC;}
</style>
<g id="bw_logo" transform="translate(-948.189 573.169)">
	<path id="Path_4" class="st0" d="M952.4-562.8c-0.2,0.5-0.5,0.6-1.2,0.1l-1.6-1.2c-0.6-0.5-0.6-0.8,0-1.2l2.5-2l-3.3-0.3
		c-0.6-0.1-0.8-0.2-0.6-0.9l0.7-2.1c0.2-0.7,0.6-0.7,1.1-0.3l2.7,1.8l-0.8-3.3c-0.2-0.6,0-0.8,0.6-0.8h2.4c0.6,0,0.7,0.2,0.6,0.8
		l-0.8,3.3l2.7-1.8c0.5-0.3,0.8-0.4,1.1,0.3l0.7,2.1c0.2,0.7,0,0.8-0.6,0.9l-3.3,0.3l2.5,2c0.6,0.5,0.6,0.8,0,1.2l-1.6,1.2
		c-0.7,0.6-1,0.4-1.2-0.1l-1.3-3.2L952.4-562.8z"/>
</g>
</svg>
