<svg xmlns="http://www.w3.org/2000/svg" width="157.25" height="24.146" viewBox="0 0 157.25 24.146">
  <g id="bw_logo" transform="translate(-948.189 573.169)">
    <path id="Path_3" data-name="Path 3" d="M961.762-558.157v-.068c2.727-.673,3.94-2.357,3.94-4.58a4.6,4.6,0,0,0-1.111-3.233c-1.078-1.146-2.728-1.718-5.423-1.718h-7.88c-2.526,0-3.1.067-3.1.674,0,.27.1.4.371.607.708.505.809.876.809,2.122v13.875c0,1.245-.1,1.616-.809,2.121-.269.2-.371.337-.371.606,0,.607.573.673,3.1.673h7.174c3.6,0,5.826-.707,7.173-2.019a5.462,5.462,0,0,0,1.55-4.042c0-2.424-1.482-4.647-5.423-5.018m-6.668-6.77h1.481c2.526,0,3.706.505,3.706,2.7,0,2.087-1.044,2.828-3,2.828h-2.189Zm2.795,15.021h-.37c-1.853,0-2.425-.54-2.425-1.718v-4.95h2.121c2.627,0,4.11.808,4.11,3.335,0,2.121-.977,3.334-3.436,3.334M982-550.714a14.586,14.586,0,0,1-3.873.605c-2.661,0-4.076-1.146-4.311-3.637a13.525,13.525,0,0,0,3.772.506c4.075,0,5.725-2.055,5.725-4.648,0-3.6-3.436-5.287-6.9-5.287-5.421,0-8.251,3.771-8.251,8.351,0,5.119,3.368,7.948,9.228,7.948a13.526,13.526,0,0,0,3.469-.5c1.381-.438,1.684-.876,1.684-2.46v-.268c0-.674-.3-.674-.538-.605m-5.389-9.363c1.38,0,2.122.774,2.122,1.851,0,1.213-.742,1.953-2.56,1.953a15.939,15.939,0,0,1-2.357-.2c.236-2.357,1.111-3.6,2.8-3.6m43.175-3.1h-.2c-4.984,0-8.218,2.9-8.218,8.15,0,4.984,3,8.149,8.084,8.149h.2c4.984,0,8.218-2.9,8.218-8.149,0-4.984-3-8.15-8.084-8.15m2.56,8.183c0,3.671-.942,5.018-2.727,5.018s-2.728-1.346-2.728-4.984v-.1c0-3.67.942-5.018,2.728-5.018s2.727,1.347,2.727,4.984Zm17.411-1.852a3.082,3.082,0,0,0-.539-2.122,2.216,2.216,0,0,0-1.616-.572,4.378,4.378,0,0,0-2.661,1.01v8.05c0,1.245.1,1.616.808,2.121.27.2.371.337.371.572,0,.674-.64.707-3.872.707s-3.873-.033-3.873-.707c0-.235.1-.371.37-.572.708-.505.809-.876.809-2.121v-8.892c0-1.38-.3-1.549-1.28-2.02a.577.577,0,0,1-.4-.573c0-.505.875-1.078,3.031-1.078,1.919,0,3.1.639,3.569,1.852a7.813,7.813,0,0,1,5.187-1.987,5.527,5.527,0,0,1,4.041,1.482,5.857,5.857,0,0,1,1.448,4.176v7.04c0,1.245.1,1.616.808,2.121.27.2.371.337.371.572,0,.674-.742.707-3.167.707h-.708c-2.424,0-2.693-.268-2.693-1.279Zm23.91,7.746c-1.111-.136-1.28-.371-1.28-1.65v-16.738c0-1.752-.977-2.56-4.041-2.56-2.155,0-3.031.572-3.031,1.079a.575.575,0,0,0,.4.572c.977.471,1.28.639,1.28,2.02v4.209a6.457,6.457,0,0,0-3.6-1.01c-4.276,0-6.937,3.233-6.937,8.553,0,2.358.641,4.883,2.325,6.4a5.989,5.989,0,0,0,3.94,1.346,6.622,6.622,0,0,0,4.882-1.919,3.451,3.451,0,0,0,3.435,1.785c1.718,0,3.1-.775,3.1-1.617,0-.269-.167-.437-.471-.471M1057-551.49a3.4,3.4,0,0,1-2.426,1.043c-1.65,0-2.592-1.077-2.592-4.545,0-3.1.808-4.714,2.761-4.714a2.857,2.857,0,0,1,2.256,1.043Zm20.845.776a14.561,14.561,0,0,1-3.872.605c-2.66,0-4.074-1.146-4.31-3.637a13.512,13.512,0,0,0,3.771.506c4.076,0,5.725-2.055,5.725-4.648,0-3.6-3.435-5.287-6.9-5.287-5.421,0-8.25,3.771-8.25,8.351,0,5.119,3.368,7.948,9.228,7.948a13.52,13.52,0,0,0,3.468-.5c1.38-.438,1.684-.876,1.684-2.46v-.268c0-.674-.3-.674-.54-.605m-5.387-9.363c1.381,0,2.122.774,2.122,1.851,0,1.213-.741,1.953-2.56,1.953a15.913,15.913,0,0,1-2.357-.2c.235-2.357,1.112-3.6,2.794-3.6m16.637.741a5.284,5.284,0,0,0-3,.909v7.949c0,1.245.1,1.616.808,2.121.27.2.371.337.371.572,0,.674-.639.707-3.872.707s-3.874-.033-3.874-.707c0-.235.1-.371.371-.572.708-.505.808-.876.808-2.121v-8.892c0-1.38-.3-1.549-1.279-2.02a.578.578,0,0,1-.4-.573c0-.505.876-1.078,3.031-1.078,1.886,0,3.132.606,3.57,2.055a6.133,6.133,0,0,1,4.445-2.189c1.347,0,1.953.4,1.953,1.851a10.47,10.47,0,0,1-.1,1.314c-.134.842-.3,1.01-.976.876a8.4,8.4,0,0,0-1.853-.2m-77.825-2.93c0,.236-.1.37-.371.572-.706.505-.808.875-.808,2.122v6.465c0,.007,0,.011,0,.016a6.279,6.279,0,0,1-1.583,4.532,6.456,6.456,0,0,1-4.648,1.683,9.69,9.69,0,0,1-6.331-2.459,9.691,9.691,0,0,1-6.332,2.459,6.454,6.454,0,0,1-4.647-1.683,6.283,6.283,0,0,1-1.583-4.548v-6.465c0-1.247-.1-1.617-.808-2.122-.27-.2-.371-.337-.371-.572,0-.674.742-.708,3.167-.708h.706c2.425,0,2.694.27,2.694,1.28v8.587a2.726,2.726,0,0,0,.606,2.089,2.206,2.206,0,0,0,1.55.505,4.036,4.036,0,0,0,2.323-.742v-10.574c0-1.01.3-1.146,2.694-1.146s2.694.135,2.694,1.146v10.574a4.035,4.035,0,0,0,2.323.742,2.2,2.2,0,0,0,1.549-.505,2.726,2.726,0,0,0,.606-2.089v-8.721c0-1.01.3-1.146,2.694-1.146h.71c2.425,0,3.165.034,3.165.708" transform="translate(0 -2.147)" fill="#313131"/>
    <!-- <path id="Path_4" data-name="Path 4" d="M1417.465-562.022c-.236.539-.505.674-1.28.067l-1.683-1.28c-.641-.5-.641-.808,0-1.346l2.66-2.156-3.536-.337c-.674-.067-.91-.236-.64-.977l.742-2.256c.27-.741.606-.708,1.179-.337l2.93,1.885-.876-3.569c-.168-.606,0-.842.606-.842h2.627c.606,0,.775.235.606.842l-.876,3.569,2.93-1.885c.572-.371.909-.4,1.179.337l.741,2.256c.27.741.033.909-.639.977l-3.536.337,2.66,2.156c.641.538.641.842,0,1.346l-1.684,1.28c-.774.606-1.044.472-1.28-.067l-1.414-3.469Z" transform="translate(-319.443)" fill="#9164cc"/> -->
  </g>
</svg>
