<svg xmlns="http://www.w3.org/2000/svg" width="146" height="22.418" viewBox="0 0 146 22.418">
<style type="text/css">
        #Path_4 { animation: svgSpin 2s linear both infinite; }

        @keyframes svgSpin {
           0% { transform: rotate(0deg) translate(-948.189 573.169); }
            100% { transform: rotate(360deg) translate(-948.189 573.169); }
        }
    </style>
  <g id="bw_logo" transform="translate(-948.189 573.169)">
    <path id="Path_3" data-name="Path 3" d="M960.791-559.008v-.063c2.532-.624,3.658-2.188,3.658-4.252a4.272,4.272,0,0,0-1.031-3c-1-1.064-2.533-1.6-5.035-1.6h-7.317c-2.345,0-2.877.062-2.877.625,0,.25.095.375.344.563.657.469.751.813.751,1.97v12.883c0,1.156-.094,1.5-.751,1.969-.249.187-.344.313-.344.563,0,.563.532.625,2.877.625h6.661c3.345,0,5.409-.656,6.659-1.875a5.071,5.071,0,0,0,1.439-3.752c0-2.251-1.377-4.314-5.035-4.659m-6.191-6.285h1.375c2.345,0,3.44.469,3.44,2.5,0,1.938-.97,2.625-2.782,2.625H954.6Zm2.595,13.946h-.344c-1.72,0-2.251-.5-2.251-1.6v-4.6h1.969c2.439,0,3.816.75,3.816,3.1,0,1.969-.908,3.1-3.19,3.1m22.389-.75a13.544,13.544,0,0,1-3.6.562c-2.471,0-3.784-1.064-4-3.377a12.559,12.559,0,0,0,3.5.47c3.783,0,5.316-1.908,5.316-4.315,0-3.345-3.19-4.909-6.41-4.909-5.034,0-7.661,3.5-7.661,7.754,0,4.753,3.127,7.379,8.567,7.379a12.557,12.557,0,0,0,3.22-.468c1.283-.407,1.564-.813,1.564-2.284v-.249c0-.625-.281-.625-.5-.562m-5-8.693c1.281,0,1.97.718,1.97,1.719,0,1.126-.689,1.814-2.377,1.814a14.787,14.787,0,0,1-2.189-.187c.219-2.189,1.032-3.345,2.6-3.345m40.086-2.877h-.187c-4.628,0-7.63,2.689-7.63,7.567,0,4.627,2.783,7.566,7.505,7.566h.187c4.628,0,7.63-2.689,7.63-7.566,0-4.628-2.783-7.567-7.505-7.567m2.377,7.6c0,3.409-.875,4.659-2.532,4.659s-2.533-1.25-2.533-4.627v-.094c0-3.408.875-4.659,2.533-4.659s2.532,1.251,2.532,4.627Zm16.166-1.72a2.862,2.862,0,0,0-.5-1.97,2.058,2.058,0,0,0-1.5-.531,4.064,4.064,0,0,0-2.471.938v7.474c0,1.156.094,1.5.75,1.969.25.187.344.313.344.531,0,.625-.594.656-3.6.656s-3.6-.031-3.6-.656c0-.219.093-.344.343-.531.657-.469.751-.813.751-1.969v-8.255c0-1.281-.281-1.438-1.188-1.875a.536.536,0,0,1-.375-.532c0-.469.813-1,2.815-1,1.782,0,2.876.594,3.314,1.72a7.254,7.254,0,0,1,4.816-1.845,5.13,5.13,0,0,1,3.751,1.376,5.437,5.437,0,0,1,1.345,3.877v6.536c0,1.156.094,1.5.75,1.969.251.187.345.313.345.531,0,.625-.689.656-2.94.656h-.657c-2.25,0-2.5-.249-2.5-1.187Zm22.2,7.192c-1.031-.126-1.188-.344-1.188-1.532v-15.54c0-1.627-.907-2.377-3.751-2.377-2,0-2.814.531-2.814,1a.534.534,0,0,0,.375.531c.908.437,1.188.593,1.188,1.876v3.908a6,6,0,0,0-3.346-.937c-3.97,0-6.441,3-6.441,7.941a7.994,7.994,0,0,0,2.158,5.942,5.56,5.56,0,0,0,3.658,1.25,6.148,6.148,0,0,0,4.533-1.782,3.2,3.2,0,0,0,3.189,1.657c1.595,0,2.876-.719,2.876-1.5,0-.25-.155-.406-.437-.437m-6.19-2.221a3.159,3.159,0,0,1-2.252.969c-1.532,0-2.406-1-2.406-4.22,0-2.877.75-4.377,2.564-4.377a2.652,2.652,0,0,1,2.095.969Zm19.354.72a13.52,13.52,0,0,1-3.595.562c-2.47,0-3.783-1.064-4-3.377a12.546,12.546,0,0,0,3.5.47c3.784,0,5.316-1.908,5.316-4.315,0-3.345-3.189-4.909-6.41-4.909-5.034,0-7.66,3.5-7.66,7.754,0,4.753,3.127,7.379,8.567,7.379a12.553,12.553,0,0,0,3.22-.468c1.281-.407,1.564-.813,1.564-2.284v-.249c0-.625-.282-.625-.5-.562m-5-8.693c1.282,0,1.97.718,1.97,1.719,0,1.126-.688,1.814-2.377,1.814a14.76,14.76,0,0,1-2.188-.187c.219-2.189,1.032-3.345,2.594-3.345m15.446.688a4.906,4.906,0,0,0-2.782.844v7.38c0,1.156.094,1.5.75,1.969.25.187.344.313.344.531,0,.625-.594.656-3.6.656s-3.6-.031-3.6-.656c0-.219.094-.344.344-.531.657-.469.75-.813.75-1.969v-8.255c0-1.281-.281-1.438-1.188-1.875a.536.536,0,0,1-.376-.532c0-.469.813-1,2.814-1,1.751,0,2.908.563,3.315,1.908a5.7,5.7,0,0,1,4.127-2.033c1.251,0,1.814.375,1.814,1.719a9.7,9.7,0,0,1-.095,1.22c-.124.781-.281.938-.906.813a7.806,7.806,0,0,0-1.72-.188m-72.256-2.72c0,.219-.094.343-.345.531-.656.469-.75.813-.75,1.97v6c0,.007,0,.01,0,.015a5.83,5.83,0,0,1-1.47,4.207,5.994,5.994,0,0,1-4.315,1.563A9,9,0,0,1,994-550.817a9,9,0,0,1-5.879,2.283,5.992,5.992,0,0,1-4.314-1.562,5.833,5.833,0,0,1-1.47-4.222v-6c0-1.158-.093-1.5-.75-1.97-.25-.188-.345-.313-.345-.531,0-.625.689-.657,2.94-.657h.656c2.251,0,2.5.25,2.5,1.188v7.972a2.531,2.531,0,0,0,.563,1.94,2.048,2.048,0,0,0,1.439.469,3.749,3.749,0,0,0,2.157-.689v-9.817c0-.938.281-1.063,2.5-1.063s2.5.126,2.5,1.063v9.817a3.746,3.746,0,0,0,2.157.689,2.043,2.043,0,0,0,1.438-.469,2.531,2.531,0,0,0,.563-1.94v-8.1c0-.938.282-1.063,2.5-1.063h.659c2.252,0,2.939.032,2.939.657" transform="translate(0 -2.217)" fill="#fff"/>
    <!-- <path id="Path_4" data-name="Path 4" d="M1417.137-562.82c-.219.5-.469.625-1.188.063l-1.562-1.188c-.595-.468-.595-.75,0-1.25l2.47-2-3.283-.312c-.625-.062-.845-.219-.594-.907l.689-2.095c.25-.688.563-.657,1.094-.312l2.72,1.75-.813-3.314c-.156-.563,0-.781.563-.781h2.439c.563,0,.719.219.563.781l-.813,3.314,2.72-1.75c.531-.344.844-.375,1.094.313l.688,2.095c.25.688.03.844-.594.907l-3.283.313,2.47,2c.595.5.595.782,0,1.25l-1.563,1.188c-.719.563-.969.438-1.188-.062l-1.313-3.221Z" transform="translate(-329.834 0)" fill="#9164cc"/> -->
  </g>
</svg>
